<svg width="15" height="15" viewBox="0 0 15 15" fill="none" xmlns="http://www.w3.org/2000/svg">
<path fill-rule="evenodd" clip-rule="evenodd" d="M3.67218 1.62075C4.70993 0.583002 6.11742 0 7.58502 0H7.79183C10.122 0 12 1.92493 12 4.24297C12 5.7995 11.1217 7.2482 9.72364 7.94721C8.6673 8.47538 8.00004 9.55504 8.00004 10.7361V12H7.00004V10.7361C7.00004 9.17627 7.88131 7.75035 9.27643 7.05279C10.3299 6.52607 11 5.42726 11 4.24297C11 2.46504 9.55763 1 7.79183 1H7.58502C6.38264 1 5.2295 1.47765 4.37929 2.32786L3.85359 2.85355L3.14648 2.14645L3.67218 1.62075ZM8.00004 15H7.00004V14H8.00004V15Z" fill="black"/>
</svg>
