<svg width="16" height="16" viewBox="0 0 16 16" fill="none" xmlns="http://www.w3.org/2000/svg">
<path fill-rule="evenodd" clip-rule="evenodd" d="M6.34038 0.533447L6.24865 0.999268L5.89772 2.70376C5.33665 2.91802 4.82785 3.22185 4.36812 3.58215L2.65291 3.00864L2.19212 2.8658L1.95319 3.27726L0.77238 5.25142L0.533447 5.66294L0.883317 5.96886L2.21025 7.09771C2.16225 7.39298 2.10039 7.68503 2.10039 7.99523C2.10039 8.30543 2.16225 8.59755 2.21025 8.89282L0.883317 10.0217L0.533447 10.3276L0.77238 10.739L1.95319 12.7133L2.19212 13.1258L2.65291 12.9819L4.36812 12.4084C4.82785 12.7687 5.33665 13.0724 5.89772 13.2867L6.24865 14.9912L6.34038 15.4571H9.65879L9.75158 14.9912L10.1014 13.2867C10.6625 13.0724 11.1713 12.7687 11.6311 12.4084L13.3463 12.9819L13.807 13.1258L14.0471 12.7133L15.2268 10.739L15.4668 10.3276L15.1159 10.0217L13.7889 8.89282C13.838 8.59755 13.8988 8.30543 13.8988 7.99523C13.8988 7.68503 13.838 7.39298 13.7889 7.09771L15.1159 5.96886L15.4668 5.66294L15.2268 5.25142L14.0471 3.27726L13.807 2.8658L13.3463 3.00864L11.6311 3.58215C11.1713 3.22185 10.6625 2.91802 10.1014 2.70376L9.75158 0.999268L9.65879 0.533447H6.34038Z" stroke="#7F8C96" stroke-width="1.064" stroke-linecap="square" stroke-linejoin="round"/>
<path fill-rule="evenodd" clip-rule="evenodd" d="M10.1331 7.99523C10.1331 9.17206 9.17732 10.1272 7.99972 10.1272C6.82212 10.1272 5.86639 9.17206 5.86639 7.99523C5.86639 6.8184 6.82212 5.86333 7.99972 5.86333C9.17732 5.86333 10.1331 6.8184 10.1331 7.99523Z" stroke="#7F8C96" stroke-width="1.064" stroke-linecap="square" stroke-linejoin="round"/>
</svg>
