<svg width="16" height="16" viewBox="0 0 16 16" fill="none" xmlns="http://www.w3.org/2000/svg">
<g id="more-horizontal">
<g id="Vector">
<path d="M3.19997 8.00013C3.19997 8.29468 2.96119 8.53346 2.66663 8.53346C2.37208 8.53346 2.1333 8.29468 2.1333 8.00013C2.1333 7.70558 2.37208 7.4668 2.66663 7.4668C2.96119 7.4668 3.19997 7.70558 3.19997 8.00013Z" stroke="#626B74" stroke-width="1.06667"/>
<path d="M8.5333 8.00013C8.5333 8.29468 8.29452 8.53346 7.99997 8.53346C7.70542 8.53346 7.46663 8.29468 7.46663 8.00013C7.46663 7.70558 7.70542 7.4668 7.99997 7.4668C8.29452 7.4668 8.5333 7.70558 8.5333 8.00013Z" stroke="#626B74" stroke-width="1.06667"/>
<path d="M13.8666 8.00013C13.8666 8.29468 13.6279 8.53346 13.3333 8.53346C13.0387 8.53346 12.8 8.29468 12.8 8.00013C12.8 7.70558 13.0387 7.4668 13.3333 7.4668C13.6279 7.4668 13.8666 7.70558 13.8666 8.00013Z" stroke="#626B74" stroke-width="1.06667"/>
</g>
</g>
</svg>
