<svg width="38" height="28" viewBox="0 0 38 28" fill="none" xmlns="http://www.w3.org/2000/svg">
<path d="M18.3349 10.7999V11.4649H19.6649V10.7999H18.3349ZM19.6649 10.7892V10.1242H18.3349V10.7892H19.6649ZM19.6649 17.7332V13.4665H18.3349V17.7332H19.6649ZM19.6649 10.7999V10.7892H18.3349V10.7999H19.6649ZM17.3999 14.6649H18.9999V13.3349H17.3999V14.6649ZM17.3999 17.8649H20.5999V16.5349H17.3999V17.8649ZM18.9999 7.1982C22.7563 7.1982 25.8015 10.2434 25.8015 13.9999L27.1315 13.9999C27.1315 9.50887 23.4909 5.8682 18.9999 5.8682L18.9999 7.1982ZM12.1982 13.9999C12.1982 10.2434 15.2434 7.1982 18.9999 7.1982L18.9999 5.8682C14.5089 5.8682 10.8682 9.50887 10.8682 13.9999L12.1982 13.9999ZM18.9999 20.8015C15.2434 20.8015 12.1982 17.7563 12.1982 13.9999L10.8682 13.9999C10.8682 18.4909 14.5089 22.1315 18.9999 22.1315L18.9999 20.8015ZM18.9999 22.1315C23.4909 22.1315 27.1315 18.4909 27.1315 13.9999L25.8015 13.9999C25.8015 17.7563 22.7563 20.8015 18.9999 20.8015L18.9999 22.1315Z" fill="#A1A9B0"/>
</svg>
